<?xml version="1.0" encoding="UTF-8"?>
<svg width="28px" height="28px" viewBox="0 0 28 28" version="1.1" xmlns="http://www.w3.org/2000/svg" xmlns:xlink="http://www.w3.org/1999/xlink">
    <title>tos_login_ic_show</title>
    <g id="tos_login_ic_show" stroke="none" stroke-width="1" fill="none" fill-rule="evenodd">
        <path d="M14,8.375 C17.5598749,8.375 20.2987063,10.3312092 21.8726751,12.0179097 L22.0895665,12.2567932 L22.0895665,12.2567932 L22.2903866,12.4905679 C22.3867417,12.6059377 22.4769866,12.718851 22.560996,12.8284967 L22.7206635,13.0431907 C22.7963031,13.1481189 22.8656236,13.2492388 22.9284998,13.3457391 L23.0456225,13.53234 C23.0636985,13.5623335 23.0810492,13.5917536 23.0976699,13.6205703 L23.1885975,13.7859893 C23.3117381,14.0225356 23.375,14.2053392 23.375,14.3125 C23.375,14.4196608 23.3117381,14.6024644 23.1885975,14.8390107 L23.0976699,15.0044297 L23.0976699,15.0044297 L22.9892232,15.1843305 C22.9111352,15.3087712 22.8215163,15.441905 22.7206635,15.5818093 L22.560996,15.7965033 C22.4769866,15.906149 22.3867417,16.0190623 22.2903866,16.1344321 L22.0895665,16.3682068 L22.0895665,16.3682068 L21.8726751,16.6070903 C20.2987063,18.2937908 17.5598749,20.25 14,20.25 C10.4401251,20.25 7.70129374,18.2937908 6.12732485,16.6070903 L5.91043351,16.3682068 L5.91043351,16.3682068 L5.7096134,16.1344321 C5.61325827,16.0190623 5.52301338,15.906149 5.43900403,15.7965033 L5.27933651,15.5818093 C5.2036969,15.4768811 5.13437636,15.3757612 5.0715002,15.2792609 L4.95437748,15.09266 C4.93630148,15.0626665 4.91895081,15.0332464 4.9023301,15.0044297 L4.81140252,14.8390107 C4.68826186,14.6024644 4.625,14.4196608 4.625,14.3125 C4.625,14.2053392 4.68826186,14.0225356 4.81140252,13.7859893 L4.9023301,13.6205703 L4.9023301,13.6205703 L5.01077679,13.4406695 C5.08886479,13.3162288 5.1784837,13.183095 5.27933651,13.0431907 L5.43900403,12.8284967 C5.52301338,12.718851 5.61325827,12.6059377 5.7096134,12.4905679 L5.91043351,12.2567932 L5.91043351,12.2567932 L6.12732485,12.0179097 C7.70129374,10.3312092 10.4401251,8.375 14,8.375 Z M13.6875,9.625 C10.7534873,9.625 8.375,11.7236652 8.375,14.3125 C8.375,16.9013348 10.7534873,19 13.6875,19 C16.6215127,19 19,16.9013348 19,14.3125 C19,11.7236652 16.6215127,9.625 13.6875,9.625 Z M13.6875,11.5 C15.2408009,11.5 16.5,12.7591991 16.5,14.3125 C16.5,15.8658009 15.2408009,17.125 13.6875,17.125 C12.1341991,17.125 10.875,15.8658009 10.875,14.3125 C10.875,12.7591991 12.1341991,11.5 13.6875,11.5 Z" id="Shape" fill="#000000"></path>
    </g>
</svg>