<?xml version="1.0" encoding="UTF-8"?>
<svg width="28px" height="28px" viewBox="0 0 28 28" version="1.1" xmlns="http://www.w3.org/2000/svg" xmlns:xlink="http://www.w3.org/1999/xlink">
    <title>tos_login_ic_hide</title>
    <g id="tos_login_ic_hide" stroke="none" stroke-width="1" fill="none" fill-rule="evenodd">
        <g id="Group" transform="translate(4.625000, 5.458754)" fill="#000000">
            <path d="M1.4682765,1.23743687 L2.7030326,1.59872116e-14 L18.3432765,15.6742003 L17.1085204,16.9116372 L1.4682765,1.23743687 Z M3.64154882,5.18445617 L5.0379572,6.58440627 C4.6155269,7.25679947 4.375,8.03048818 4.375,8.85374578 C4.375,11.4425805 6.75348727,13.5412458 9.6875,13.5412458 C10.3806772,13.5412458 11.0428468,13.4241051 11.6499693,13.211035 L12.8100939,14.3738502 C11.9439429,14.6354371 11.0046688,14.7912458 10,14.7912458 C6.44012507,14.7912458 3.70129374,12.8350366 2.12732485,11.1483361 L1.91043351,10.9094526 L1.7096134,10.6756779 C1.61325827,10.560308 1.52301338,10.4473948 1.43900403,10.3377491 L1.27933651,10.1230551 C1.2036969,10.0181268 1.13437636,9.917007 1.0715002,9.8205067 L0.954377477,9.63390579 L0.902330097,9.54567549 L0.902330097,9.54567549 L0.811402516,9.38025645 C0.688261858,9.1437102 0.625,8.96090654 0.625,8.85374578 C0.625,8.74658502 0.688261858,8.56378137 0.811402516,8.32723511 L0.902330097,8.16181607 L1.01077679,7.98191529 C1.08886479,7.85747463 1.1784837,7.7243408 1.27933651,7.58443648 L1.43900403,7.36974244 C1.52301338,7.26009681 1.61325827,7.14718352 1.7096134,7.03181369 L1.91043351,6.79803898 L2.12732485,6.55915549 C2.55020437,6.10598827 3.05716834,5.63336684 3.64154882,5.18445617 Z M10,2.91624578 C13.5598749,2.91624578 16.2987063,4.87245499 17.8726751,6.55915549 L18.0895665,6.79803898 L18.2903866,7.03181369 C18.3867417,7.14718352 18.4769866,7.26009681 18.560996,7.36974244 L18.7206635,7.58443648 C18.7963031,7.68936472 18.8656236,7.79048456 18.9284998,7.88698487 L19.0456225,8.07358577 L19.0976699,8.16181607 L19.0976699,8.16181607 L19.1885975,8.32723511 C19.3117381,8.56378137 19.375,8.74658502 19.375,8.85374578 C19.375,8.96090654 19.3117381,9.1437102 19.1885975,9.38025645 L19.0976699,9.54567549 L18.9892232,9.72557628 C18.9111352,9.85001693 18.8215163,9.98315076 18.7206635,10.1230551 L18.560996,10.3377491 C18.4769866,10.4473948 18.3867417,10.560308 18.2903866,10.6756779 L18.0895665,10.9094526 L17.8726751,11.1483361 C17.5335948,11.5117022 17.140453,11.8875763 16.6966873,12.2537052 L14.7434985,10.2968072 C14.910029,9.84221757 15,9.3572525 15,8.85374578 C15,6.26491102 12.6215127,4.16624578 9.6875,4.16624578 C9.35181877,4.16624578 9.02340921,4.19371671 8.70500139,4.24624968 L7.66447174,3.20301217 C8.39615934,3.02103239 9.17608959,2.91624578 10,2.91624578 Z M6.90320862,8.45387694 L10.0810871,11.638924 C9.95247545,11.656934 9.82107517,11.6662458 9.6875,11.6662458 C8.13419914,11.6662458 6.875,10.4070466 6.875,8.85374578 C6.875,8.71799512 6.88461761,8.58449077 6.90320862,8.45387694 Z M10.6757272,6.21976567 C11.4359373,6.50511757 12.0397986,7.11014888 12.3235782,7.87112646 L10.6757272,6.21976567 Z" id="Shape"></path>
        </g>
    </g>
</svg>