<?xml version="1.0" encoding="UTF-8"?>
<svg width="30px" height="30px" viewBox="0 0 30 30" version="1.1" xmlns="http://www.w3.org/2000/svg" xmlns:xlink="http://www.w3.org/1999/xlink">
    <title>tos_login_ic_line_arrow_backward</title>
    <g id="tos_login_ic_line_arrow_backward" stroke="none" stroke-width="1" fill="none" fill-rule="evenodd">
        <g id="arrow_back-24px">
            <polygon id="Path" points="0 0 30 0 30 30 0 30"></polygon>
            <path d="M23.75,13.75 L9.7875,13.75 L15.8875,7.65 C16.375,7.1625 16.375,6.3625 15.8875,5.875 C15.4,5.3875 14.6125,5.3875 14.125,5.875 L5.8875,14.1125 C5.4,14.6 5.4,15.3875 5.8875,15.875 L14.125,24.1125 C14.6125,24.6 15.4,24.6 15.8875,24.1125 C16.375,23.625 16.375,22.8375 15.8875,22.35 L9.7875,16.25 L23.75,16.25 C24.4375,16.25 25,15.6875 25,15 C25,14.3125 24.4375,13.75 23.75,13.75 Z" id="Path" fill="#000000"></path>
        </g>
    </g>
</svg>