<?xml version="1.0" encoding="UTF-8"?>
<svg width="16px" height="16px" viewBox="0 0 16 16" version="1.1" xmlns="http://www.w3.org/2000/svg" xmlns:xlink="http://www.w3.org/1999/xlink">
    <title>tos_cp_ic_network_none</title>
    <g id="Guide" stroke="none" stroke-width="1" fill="none" fill-rule="evenodd">
        <g id="04_01_03_TOS5_network2" transform="translate(-560.000000, -263.000000)">
            <g id="Group-5" transform="translate(559.000000, 262.000000)">
                <polygon id="Path" points="1 1 17 1 17 17 1 17"></polygon>
                <path d="M9,3 C9.55228475,3 10,3.44771525 10,4 L10,7.999 L14,8 C14.5522847,8 15,8.44771525 15,9 C15,9.55228475 14.5522847,10 14,10 L9.999,9.999 L10,14 C10,14.5522847 9.55228475,15 9,15 C8.44771525,15 8,14.5522847 8,14 L7.999,9.999 L4,10 C3.44771525,10 3,9.55228475 3,9 C3,8.44771525 3.44771525,8 4,8 L8,7.999 L8,4 C8,3.44771525 8.44771525,3 9,3 Z" id="Combined-Shape" fill="#E24961" transform="translate(9.000000, 9.000000) rotate(-315.000000) translate(-9.000000, -9.000000) "></path>
            </g>
        </g>
    </g>
</svg>