<?xml version="1.0" encoding="UTF-8"?>
<svg width="39px" height="38px" viewBox="0 0 39 38" version="1.1" xmlns="http://www.w3.org/2000/svg" xmlns:xlink="http://www.w3.org/1999/xlink">
    <title>tos_desktop_ic_windowf4_power</title>
    <defs>
        <linearGradient x1="90.84043%" y1="0.538755821%" x2="9.41411823%" y2="99.2251458%" id="linearGradient-1">
            <stop stop-color="#E24961" offset="0.0343116554%"></stop>
            <stop stop-color="#CE3047" offset="99.9604096%"></stop>
        </linearGradient>
    </defs>
    <g id="Guide" stroke="none" stroke-width="1" fill="none" fill-rule="evenodd">
        <g id="02_01_11_TOS5_altF4" transform="translate(-989.000000, -520.000000)">
            <g id="Group-4" transform="translate(610.000000, 425.000000)">
                <g id="Group-7" transform="translate(22.080435, 95.000000)">
                    <g id="Group-Copy-2" transform="translate(357.743478, 0.000000)">
                        <g id="power_settings_new-24px">
                            <polygon id="Path" points="0 0 38.0826087 0 38.0826087 38 0 38"></polygon>
                            <path d="M19.0413043,4.75 C18.1685779,4.75 17.454529,5.4625 17.454529,6.33333333 L17.454529,19 C17.454529,19.8708333 18.1685779,20.5833333 19.0413043,20.5833333 C19.9140308,20.5833333 20.6280797,19.8708333 20.6280797,19 L20.6280797,6.33333333 C20.6280797,5.4625 19.9140308,4.75 19.0413043,4.75 Z M27.1973297,9.27833333 C26.5784873,9.89583333 26.5943551,10.8616667 27.181462,11.4791667 C28.9745181,13.3791667 30.0852609,15.9125 30.1487319,18.715 C30.2915417,24.7791667 25.2614638,30.0041667 19.1841141,30.0675 C12.9798225,30.1625 7.93387681,25.175 7.93387681,19 C7.93387681,16.0866667 9.06048732,13.4425 10.9011467,11.4633333 C11.4882536,10.8458333 11.4882536,9.88 10.885279,9.27833333 C10.2505688,8.645 9.21916486,8.66083333 8.61619022,9.31 C6.31536594,11.7483333 4.87140036,14.9941667 4.76032609,18.5883333 C4.53817754,26.315 10.8376757,32.9966667 18.5811395,33.2341667 C26.6736938,33.4875 33.3222826,27.0116667 33.3222826,18.9841667 C33.3222826,15.2316667 31.8624493,11.8433333 29.4822862,9.31 C28.8793116,8.66083333 27.8320399,8.645 27.1973297,9.27833333 L27.1973297,9.27833333 Z" id="tos_ic/power" fill="url(#linearGradient-1)"></path>
                        </g>
                    </g>
                </g>
            </g>
        </g>
    </g>
</svg>