<?xml version="1.0" encoding="UTF-8"?>
<svg width="39px" height="38px" viewBox="0 0 39 38" version="1.1" xmlns="http://www.w3.org/2000/svg" xmlns:xlink="http://www.w3.org/1999/xlink">
    <title>tos_desktop_ic_windowf4_restart</title>
    <defs>
        <linearGradient x1="90.8963583%" y1="0.421124374%" x2="9.28493172%" y2="99.4314159%" id="linearGradient-1">
            <stop stop-color="#3E8C65" offset="0%"></stop>
            <stop stop-color="#337553" offset="100%"></stop>
        </linearGradient>
    </defs>
    <g id="Guide" stroke="none" stroke-width="1" fill="none" fill-rule="evenodd">
        <g id="02_01_11_TOS5_altF4" transform="translate(-905.000000, -520.000000)" fill="url(#linearGradient-1)">
            <g id="Group-4" transform="translate(610.000000, 425.000000)">
                <g id="Group-7" transform="translate(22.080435, 95.000000)">
                    <g id="Group-2" transform="translate(273.560870, 0.000000)">
                        <g id="tos_ic/restart">
                            <path d="M19.6954348,24.7 C20.3857907,24.7 20.9454348,25.2596441 20.9454348,25.95 L20.9454348,32.95 C20.9454348,33.6403559 20.3857907,34.2 19.6954348,34.2 L19.0218841,34.2 C18.3315281,34.2 17.7718841,33.6403559 17.7718841,32.95 L17.7718841,25.95 C17.7718841,25.2596441 18.3315281,24.7 19.0218841,24.7 L19.6954348,24.7 Z M25.4028729,22.7919309 L30.3653012,27.7435947 C30.8539863,28.2312197 30.8548456,29.0226755 30.3672206,29.5113606 L30.3653012,29.51328 L29.8909514,29.9866008 C29.4030165,30.4734772 28.6130398,30.4734772 28.1251049,29.9866008 L23.1626767,25.034937 C22.6739916,24.547312 22.6731322,23.7558562 23.1607573,23.2671711 L23.6370264,22.7919309 C24.1249613,22.3050545 24.914938,22.3050545 25.4028729,22.7919309 Z M15.0802924,22.7919309 L15.5546422,23.2652517 C16.0433273,23.7528768 16.0441866,24.5443325 15.5565616,25.0330176 C15.5559225,25.0336581 15.5552827,25.0342979 15.5546422,25.034937 L10.592214,29.9866008 C10.1042791,30.4734772 9.31430233,30.4734772 8.82636744,29.9866008 L8.35201769,29.51328 C7.86333258,29.0256549 7.86247324,28.2341992 8.35009829,27.7455141 L8.35201769,27.7435947 L13.3144459,22.7919309 C13.8023808,22.3050545 14.5923575,22.3050545 15.0802924,22.7919309 Z M33.3417029,17.4166667 C34.0320588,17.4166667 34.5917029,17.9763107 34.5917029,18.6666667 L34.5917029,19.3333333 C34.5917029,20.0236893 34.0320588,20.5833333 33.3417029,20.5833333 L26.3210507,20.5833333 C25.6306948,20.5833333 25.0710507,20.0236893 25.0710507,19.3333333 L25.0710507,18.6666667 C25.0710507,17.9763107 25.6306948,17.4166667 26.3210507,17.4166667 L33.3417029,17.4166667 Z M12.3962681,17.4166667 C13.0866241,17.4166667 13.6462681,17.9763107 13.6462681,18.6666667 L13.6462681,19.3333333 C13.6462681,20.0236893 13.0866241,20.5833333 12.3962681,20.5833333 L5.37561594,20.5833333 C4.68526,20.5833333 4.12561594,20.0236893 4.12561594,19.3333333 L4.12561594,18.6666667 C4.12561594,17.9763107 4.68526,17.4166667 5.37561594,17.4166667 L12.3962681,17.4166667 Z M10.592214,8.01339921 L15.5546422,12.965063 C16.0433273,13.452688 16.0441866,14.2441438 15.5565616,14.7328289 C15.5559225,14.7334694 15.5552827,14.7341092 15.5546422,14.7347483 L15.0802924,15.2080691 C14.5923575,15.6949455 13.8023808,15.6949455 13.3144459,15.2080691 L8.35201769,10.2564053 C7.86333258,9.76878027 7.86247324,8.97732451 8.35009829,8.48863941 L8.35201769,8.48672001 L8.82636744,8.01339921 C9.31430233,7.52652275 10.1042791,7.52652275 10.592214,8.01339921 Z M29.8909514,8.01339921 L30.3653012,8.48672001 C30.8539863,8.97434506 30.8548456,9.76580081 30.3672206,10.2544859 L30.3653012,10.2564053 L25.4028729,15.2080691 C24.914938,15.6949455 24.1249613,15.6949455 23.6370264,15.2080691 L23.1626767,14.7347483 C22.6739916,14.2471232 22.6731322,13.4556675 23.1607573,12.9669824 C23.1613964,12.9663419 23.1620362,12.9657021 23.1626767,12.965063 L28.1251049,8.01339921 C28.6130398,7.52652275 29.4030165,7.52652275 29.8909514,8.01339921 Z M19.6954348,3.8 C20.3857907,3.8 20.9454348,4.35964406 20.9454348,5.05 L20.9454348,12.05 C20.9454348,12.7403559 20.3857907,13.3 19.6954348,13.3 L19.0218841,13.3 C18.3315281,13.3 17.7718841,12.7403559 17.7718841,12.05 L17.7718841,5.05 C17.7718841,4.35964406 18.3315281,3.8 19.0218841,3.8 L19.6954348,3.8 Z" id="Combined-Shape-Copy"></path>
                        </g>
                    </g>
                </g>
            </g>
        </g>
    </g>
</svg>