<?xml version="1.0" encoding="UTF-8"?>
<svg width="39px" height="38px" viewBox="0 0 39 38" version="1.1" xmlns="http://www.w3.org/2000/svg" xmlns:xlink="http://www.w3.org/1999/xlink">
    <title>tos_desktop_ic_windowf4_sleep</title>
    <defs>
        <linearGradient x1="72.4394907%" y1="0.20532974%" x2="27.6599816%" y2="99.6465687%" id="linearGradient-1">
            <stop stop-color="#F6A931" offset="0%"></stop>
            <stop stop-color="#EB982F" offset="100%"></stop>
        </linearGradient>
    </defs>
    <g id="Guide" stroke="none" stroke-width="1" fill="none" fill-rule="evenodd">
        <g id="02_01_11_TOS5_altF4" transform="translate(-821.000000, -520.000000)" fill="url(#linearGradient-1)">
            <g id="Group-4" transform="translate(610.000000, 425.000000)">
                <g id="Group-7" transform="translate(22.080435, 95.000000)">
                    <g id="Group-3" transform="translate(189.378261, 0.000000)">
                        <path d="M26.3315675,34.0944691 C24.6179613,34.8392168 22.7276679,35.25 20.7424101,35.25 C12.8843482,35.25 6.51413043,28.8140933 6.51413043,20.875 C6.51413043,12.9359067 12.8843482,6.5 20.7424101,6.5 C23.0060354,6.5 25.1461981,7.03405742 27.0461907,7.98426139 C28.2388927,8.87002892 28.0351122,9.8464478 26.4366704,10.9137401 C23.0319839,12.9010293 20.7424101,16.6178781 20.7424101,20.875 C20.7424101,25.0383892 22.9322709,28.6850349 26.211773,30.703372 L26.5221903,30.8858961 C28.1651305,31.8442294 28.1015896,32.9137538 26.3315675,34.0944691 Z M20.3218451,9.85376588 C14.6450064,9.85376588 10.0430194,14.8905624 10.0430194,21.1037659 C10.0430194,27.3169693 14.6450064,32.3537659 20.3218451,32.3537659 C20.9486335,32.3537659 21.566248,32.2926494 22.1694406,32.1727605 L22.5701933,32.0821883 L22.3282098,31.8653761 C19.5778846,29.332695 17.8767122,25.6127999 17.758708,21.5558786 L17.7521386,21.1037659 C17.7521386,16.9266557 19.4315706,13.0681761 22.2220237,10.4424615 L22.5701933,10.1250008 L22.2133908,10.043331 C21.7501839,9.94920699 21.278678,9.88963861 20.8012116,9.86573717 L20.3218451,9.85376588 Z" id="tos_ic/sleep" transform="translate(17.162228, 20.875000) rotate(-30.000000) translate(-17.162228, -20.875000) "></path>
                    </g>
                </g>
            </g>
        </g>
    </g>
</svg>