<?xml version="1.0" encoding="UTF-8"?>
<svg width="39px" height="38px" viewBox="0 0 39 38" version="1.1" xmlns="http://www.w3.org/2000/svg" xmlns:xlink="http://www.w3.org/1999/xlink">
    <title>tos_desktop_ic_windowf4_user</title>
    <defs>
        <linearGradient x1="85.9561223%" y1="0.307654429%" x2="14.1296107%" y2="99.6465687%" id="linearGradient-1">
            <stop stop-color="#42A4B6" offset="0.0343116554%"></stop>
            <stop stop-color="#32829A" offset="100%"></stop>
        </linearGradient>
    </defs>
    <g id="Guide" stroke="none" stroke-width="1" fill="none" fill-rule="evenodd">
        <g id="02_01_11_TOS5_altF4" transform="translate(-737.000000, -520.000000)" fill="url(#linearGradient-1)">
            <g id="Group-4" transform="translate(610.000000, 425.000000)">
                <g id="Group-7" transform="translate(22.080435, 95.000000)">
                    <g id="Group-Copy" transform="translate(105.195652, 0.000000)">
                        <g id="power_settings_new-24px">
                            <g id="tos_ic/help-copy-2">
                                <path d="M19.0413043,20.52 C25.7183222,20.52 31.2277391,25.0473249 31.2277391,30.78 C31.2277391,31.5495168 30.6025664,32.1733333 29.8313768,32.1733333 L29.8313768,32.1733333 L8.25123188,32.1733333 C7.48004227,32.1733333 6.85486957,31.5495168 6.85486957,30.78 C6.85486957,25.0473249 12.3642865,20.52 19.0413043,20.52 Z M19.0413043,23.3066667 C14.469048,23.3066667 10.7255147,25.9032439 9.84423287,29.2621362 L9.84423287,29.2621362 L9.81388826,29.3866667 L28.267451,29.3866667 L28.2383758,29.2621362 C27.3785887,25.9851681 23.7944694,23.4337825 19.3743512,23.311274 L19.3743512,23.311274 Z M19.0413043,6.20666667 C22.6168198,6.20666667 25.5153478,9.09890718 25.5153478,12.6666667 C25.5153478,16.2344262 22.6168198,19.1266667 19.0413043,19.1266667 C15.4657889,19.1266667 12.5672609,16.2344262 12.5672609,12.6666667 C12.5672609,9.09890718 15.4657889,6.20666667 19.0413043,6.20666667 Z M19.0413043,8.99333333 C17.0081681,8.99333333 15.3599855,10.6379407 15.3599855,12.6666667 C15.3599855,14.6953926 17.0081681,16.34 19.0413043,16.34 C21.0744406,16.34 22.7226232,14.6953926 22.7226232,12.6666667 C22.7226232,10.6379407 21.0744406,8.99333333 19.0413043,8.99333333 Z" id="Combined-Shape"></path>
                            </g>
                        </g>
                    </g>
                </g>
            </g>
        </g>
    </g>
</svg>