<?xml version="1.0" encoding="UTF-8"?>
<svg width="39px" height="38px" viewBox="0 0 39 38" version="1.1" xmlns="http://www.w3.org/2000/svg" xmlns:xlink="http://www.w3.org/1999/xlink">
    <title>tos_desktop_ic_windowf4_logout</title>
    <defs>
        <linearGradient x1="90.8123804%" y1="0.523005619%" x2="9.28493172%" y2="99.4314159%" id="linearGradient-1">
            <stop stop-color="#6560BE" offset="0.0343116554%"></stop>
            <stop stop-color="#4D46AB" offset="100%"></stop>
        </linearGradient>
    </defs>
    <g id="Guide" stroke="none" stroke-width="1" fill="none" fill-rule="evenodd">
        <g id="02_01_11_TOS5_altF4" transform="translate(-653.000000, -520.000000)">
            <g id="Group-4" transform="translate(610.000000, 425.000000)">
                <g id="Group-7" transform="translate(22.080435, 95.000000)">
                    <g id="Group" transform="translate(21.013043, 0.000000)">
                        <g id="power_settings_new-24px">
                            <g id="tos_ic/logout" transform="translate(0.340576, 1.266667)">
                                <g id="save_alt-24px" transform="translate(18.433482, 18.000000) rotate(-270.000000) translate(-18.433482, -18.000000) translate(0.394351, 0.000000)">
                                    <polygon id="Path" points="0 0 35.5437681 0 35.5437681 35.4666667 0 35.4666667"></polygon>
                                    <path d="M29.6198068,11.8222222 C30.4343514,11.8222222 31.1007971,12.4872222 31.1007971,13.3 L31.1007971,13.3 L31.1007971,26.6 C31.1007971,28.2255556 29.7679058,29.5555556 28.1388164,29.5555556 L28.1388164,29.5555556 L7.40495169,29.5555556 C5.77586232,29.5555556 4.44297101,28.2255556 4.44297101,26.6 L4.44297101,26.6 L4.44297101,13.3 C4.44297101,12.4872222 5.10941667,11.8222222 5.92396135,11.8222222 C6.73850604,11.8222222 7.40495169,12.4872222 7.40495169,13.3 L7.40495169,13.3 L7.40495169,25.1222222 C7.40495169,25.935 8.07139734,26.6 8.88594203,26.6 L8.88594203,26.6 L26.6578261,26.6 C27.4723708,26.6 28.1388164,25.935 28.1388164,25.1222222 L28.1388164,25.1222222 L28.1388164,13.3 C28.1388164,12.4872222 28.8052621,11.8222222 29.6198068,11.8222222 Z M16.7203809,3.38780556 C17.2979671,2.81147222 18.2309911,2.81147222 18.8085773,3.38780556 L18.8085773,3.38780556 L24.1253326,8.69302778 C24.7029188,9.26936111 24.7029188,10.2003611 24.1253326,10.7766944 C23.5477464,11.3530278 22.6147225,11.3530278 22.0371362,10.7766944 L22.0371362,10.7766944 L19.2528744,7.99847222 L19.2528744,20.8108056 C19.2528744,21.6235833 18.5864287,22.2885833 17.7718841,22.2885833 C16.9573394,22.2885833 16.2908937,21.6235833 16.2908937,20.8108056 L16.2908937,20.8108056 L16.2908937,7.99847222 L13.491822,10.7766944 C12.9142357,11.3530278 11.9812118,11.3530278 11.4036256,10.7766944 C10.8260394,10.2003611 10.8260394,9.26936111 11.4036256,8.69302778 L11.4036256,8.69302778 Z" id="Combined-Shape" fill="url(#linearGradient-1)"></path>
                                </g>
                            </g>
                        </g>
                    </g>
                </g>
            </g>
        </g>
    </g>
</svg>