<?xml version="1.0" encoding="UTF-8"?>
<svg width="110px" height="52px" viewBox="0 0 110 52" version="1.1" xmlns="http://www.w3.org/2000/svg" xmlns:xlink="http://www.w3.org/1999/xlink">
    <title>tos_img_dualmonitor01</title>
    <g id="Guide" stroke="none" stroke-width="1" fill="none" fill-rule="evenodd">
        <g id="04_01_08_TOS5_Mail" transform="translate(-1208.000000, -108.000000)">
            <g id="menu-copy-7" transform="translate(1208.000000, 108.000000)">
                <g id="Group-3-Copy-9">
                    <g id="Group" transform="translate(12.000000, 8.000000)">
                        <g id="Bitmap-Copy-9">
                            <path d="M16.4415184,31 L23.5584816,31 C24.4193424,31 25.1836201,31.5508602 25.4558482,32.3675445 L26.1225148,34.3675445 C26.4718104,35.4154311 25.9054904,36.5480711 24.8576038,36.8973666 C24.6536708,36.9653442 24.4401124,37 24.2251482,37 L15.7748518,37 C14.6702823,37 13.7748518,36.1045695 13.7748518,35 C13.7748518,34.7850358 13.8095075,34.5714774 13.8774852,34.3675445 L14.5441518,32.3675445 C14.8163799,31.5508602 15.5806576,31 16.4415184,31 Z" id="Mask-Copy" fill="#8E91A3"></path>
                            <rect id="Mask-Copy-2" stroke="#8E91A3" stroke-width="2" fill="#FFFFFF" x="1" y="1" width="38" height="31" rx="2"></rect>
                            <rect id="Rectangle" fill="#8E91A3" x="0" y="27" width="40" height="2"></rect>
                            <path d="M20,6 C24.9705627,6 29,10.0294373 29,15 C29,19.9705627 24.9705627,24 20,24 C15.0294373,24 11,19.9705627 11,15 C11,10.0294373 15.0294373,6 20,6 Z M20,10 C17.2385763,10 15,12.2385763 15,15 C15,17.7614237 17.2385763,20 20,20 C22.7614237,20 25,17.7614237 25,15 C25,12.2385763 22.7614237,10 20,10 Z" id="Combined-Shape" fill="#E24961"></path>
                        </g>
                        <g id="Bitmap-Copy-13" transform="translate(46.000000, 0.000000)">
                            <path d="M16.4415184,31 L23.5584816,31 C24.4193424,31 25.1836201,31.5508602 25.4558482,32.3675445 L26.1225148,34.3675445 C26.4718104,35.4154311 25.9054904,36.5480711 24.8576038,36.8973666 C24.6536708,36.9653442 24.4401124,37 24.2251482,37 L15.7748518,37 C14.6702823,37 13.7748518,36.1045695 13.7748518,35 C13.7748518,34.7850358 13.8095075,34.5714774 13.8774852,34.3675445 L14.5441518,32.3675445 C14.8163799,31.5508602 15.5806576,31 16.4415184,31 Z" id="Mask-Copy" fill="#8E91A3"></path>
                            <rect id="Mask-Copy-2" stroke="#8E91A3" stroke-width="2" fill="#FFFFFF" x="1" y="1" width="38" height="31" rx="2"></rect>
                            <rect id="Rectangle" fill="#8E91A3" x="0" y="27" width="40" height="2"></rect>
                        </g>
                    </g>
                </g>
            </g>
        </g>
    </g>
</svg>