<svg width="24" height="24" viewBox="0 0 24 24" xmlns="http://www.w3.org/2000/svg">
    <g fill="none" fill-rule="evenodd">
        <path d="M0 0h24v24H0z"/>
        <path d="M13 2a1 1 0 0 1 1 1v1.252c.734.19 1.427.48 2.064.856l.886-.886a1 1 0 0 1 1.414 0l1.414 1.414a1 1 0 0 1 0 1.414l-.886.886c.377.637.667 1.33.856 2.065L21 10a1 1 0 0 1 1 1v2a1 1 0 0 1-1 1h-1.252a7.952 7.952 0 0 1-.856 2.064l.886.886a1 1 0 0 1 0 1.414l-1.414 1.414a1 1 0 0 1-1.414 0l-.886-.886a7.952 7.952 0 0 1-2.064.856V21a1 1 0 0 1-1 1h-2a1 1 0 0 1-1-1v-1.252a7.952 7.952 0 0 1-2.064-.856l-.886.886a1 1 0 0 1-1.414 0l-1.414-1.414a1 1 0 0 1 0-1.414l.886-.886A7.952 7.952 0 0 1 4.252 14H3a1 1 0 0 1-1-1v-2a1 1 0 0 1 1-1h1.252c.189-.734.48-1.427.856-2.064l-.886-.886a1 1 0 0 1 0-1.414l1.414-1.414a1 1 0 0 1 1.414 0l.886.886a7.952 7.952 0 0 1 2.065-.856L10 3a1 1 0 0 1 1-1h2zm-1 5a5 5 0 1 0 0 10 5 5 0 0 0 0-10z" fill="#FFF"/>
    </g>
</svg>
