<svg width="26" height="26" viewBox="0 0 26 26" xmlns="http://www.w3.org/2000/svg">
    <g fill="none" fill-rule="evenodd">
        <path d="M0 0h26v26H0z"/>
        <path d="M22.009 6.655a.406.406 0 0 0-.318-.155h-9.103l-.676 2.836a.412.412 0 0 1-.399.326H5.55l-.341 1.86a.425.425 0 0 0 .082.35.407.407 0 0 0 .319.155H9.7L7.167 24.195a.428.428 0 0 0 .082.35.409.409 0 0 0 .318.155h5.913c.194 0 .36-.138.4-.331l2.571-12.342h4.269c.193 0 .36-.138.4-.332l.97-4.69a.423.423 0 0 0-.081-.35" fill="#FFF"/>
        <path d="M12.072 1.3H5.445c-.19 0-.355.14-.397.336L3.65 8.14a.448.448 0 0 0 .08.364.4.4 0 0 0 .318.162h6.623c.19 0 .354-.139.396-.335l1.403-6.506a.448.448 0 0 0-.08-.364.4.4 0 0 0-.318-.162z" fill="#EB5549"/>
    </g>
</svg>
