<?xml version="1.0" encoding="UTF-8"?>
<svg width="32px" height="32px" viewBox="0 0 32 32" version="1.1" xmlns="http://www.w3.org/2000/svg" xmlns:xlink="http://www.w3.org/1999/xlink">
    <title>tos_ic_notification_no</title>
    <g id="tos_ic_notification_no" stroke="none" stroke-width="1" fill="none" fill-rule="evenodd">
        <g id="Group">
            <g id="tos_ic_notification_none">
                <rect id="Rectangle" fill="#FFFFFF" opacity="0.6" x="0" y="0" width="32" height="32" rx="8"></rect>
                <g id="Artboard-Copy-6" transform="translate(6.000000, 5.999320)" fill="#000000">
                    <path d="M20,5.658 L20,18.7935729 C20,19.0697153 19.7761424,19.2935729 19.5,19.2935729 C19.3673918,19.2935729 19.2402148,19.2408945 19.1464466,19.1471263 L16,16.0006797 L9.658,16 L12.658,13 L15,13.0006797 C15.5522847,13.0006797 16,12.5529644 16,12.0006797 C16,11.4483949 15.5522847,11.0006797 15,11.0006797 L14.658,11 L20,5.658 Z M14.345,0 L11.345,3 L5,3.00067966 C4.44771525,3.00067966 4,3.44839491 4,4.00067966 C4,4.5135155 4.38604019,4.93618682 4.88337887,4.99395193 L5,5.00067966 L9.345,5 L7.345,7 L5,7.00067966 C4.44771525,7.00067966 4,7.44839491 4,8.00067966 C4,8.5135155 4.38604019,8.93618682 4.88337887,8.99395193 L5,9.00067966 L5.345,9 L0.0254264678,14.3204566 C0.00869436432,14.2163327 1.33292856e-17,14.1095215 0,14.0006797 L0,2.00067966 C-1.3527075e-16,0.896110157 0.8954305,0.000679656441 2,0.000679656441 L14.345,0 Z" id="Combined-Shape"></path>
                </g>
            </g>
            <rect id="Rectangle" fill="#000000" transform="translate(16.000815, 16.000815) rotate(-315.000000) translate(-16.000815, -16.000815) " x="14.5008153" y="0.50081528" width="3" height="31" rx="1.5"></rect>
        </g>
    </g>
</svg>