<?xml version="1.0" encoding="UTF-8"?>
<svg width="24px" height="24px" viewBox="0 0 24 24" version="1.1" xmlns="http://www.w3.org/2000/svg" xmlns:xlink="http://www.w3.org/1999/xlink">
    <title>tos_ic_alram_blutooth</title>
    <g id="Guide" stroke="none" stroke-width="1" fill="none" fill-rule="evenodd">
        <g id="05_03_02_TOS5_alarm" transform="translate(-609.000000, -412.000000)">
            <g id="tos5_dialog/top" transform="translate(589.000000, 393.000000)">
                <rect id="Rectangle" x="0" y="0" width="380" height="42"></rect>
                <g id="bluetooth-24px" transform="translate(20.000000, 19.000000)">
                    <polygon id="Path" points="0 0 24 0 24 24 0 24"></polygon>
                    <path d="M17,7 L12.71,2.71 C12.08,2.08 11,2.52 11,3.41 L11,9.59 L7.11,5.7 C6.72,5.31 6.09,5.31 5.7,5.7 C5.31,6.09 5.31,6.72 5.7,7.11 L10.59,12 L5.7,16.89 C5.31,17.28 5.31,17.91 5.7,18.3 C6.09,18.69 6.72,18.69 7.11,18.3 L11,14.41 L11,20.59 C11,21.48 12.08,21.93 12.71,21.3 L17,17 C17.39,16.61 17.39,15.98 17,15.59 L13.41,12 L17,8.42 C17.39,8.03 17.39,7.39 17,7 Z M13,5.83 L14.88,7.71 L13,9.59 L13,5.83 Z M14.88,16.29 L13,18.17 L13,14.41 L14.88,16.29 L14.88,16.29 Z" id="Shape" fill="#FFFFFF"></path>
                </g>
            </g>
        </g>
    </g>
</svg>