<?xml version="1.0" encoding="UTF-8"?>
<svg width="25px" height="24px" viewBox="0 0 25 24" version="1.1" xmlns="http://www.w3.org/2000/svg" xmlns:xlink="http://www.w3.org/1999/xlink">
    <title>tos_desktop_ic_alarm_setting</title>
    <g id="Guide" stroke="none" stroke-width="1" fill="none" fill-rule="evenodd">
        <g id="04_02_03_TOS5_alarm" transform="translate(-320.000000, -603.000000)">
            <g id="Group" transform="translate(48.000000, 539.000000)">
                <g id="Group-14" transform="translate(260.000000, 52.000000)">
                    <g id="Group" transform="translate(12.000000, 12.000000)">
                        <polygon id="Path" points="0 0 24 0 24 24 0 24"></polygon>
                        <path d="M13,2 C13.5522847,2 14,2.44771525 14,3 L14.0003581,4.25212715 C14.7342764,4.4410611 15.4274316,4.73152463 16.0639579,5.10765191 L16.9497475,4.22182541 C17.3402718,3.83130112 17.9734367,3.83130112 18.363961,4.22182541 L19.7781746,5.63603897 C20.1686989,6.02656326 20.1686989,6.65972824 19.7781746,7.05025253 L18.8923481,7.93604206 C19.2686466,8.5728581 19.5592033,9.26635459 19.7481308,10.000644 L21,10 C21.5522847,10 22,10.4477153 22,11 L22,13 C22,13.5522847 21.5522847,14 21,14 L19.7478729,14.0003581 C19.5589389,14.7342764 19.2684754,15.4274316 18.8923481,16.0639579 L19.7781746,16.9497475 C20.1686989,17.3402718 20.1686989,17.9734367 19.7781746,18.363961 L18.363961,19.7781746 C17.9734367,20.1686989 17.3402718,20.1686989 16.9497475,19.7781746 L16.0639579,18.8923481 C15.4274316,19.2684754 14.7342764,19.5589389 14.0003581,19.7478729 L14,21 C14,21.5522847 13.5522847,22 13,22 L11,22 C10.4477153,22 10,21.5522847 10,21 L10.000644,19.7481308 C9.26635459,19.5592033 8.5728581,19.2686466 7.93604206,18.8923481 L7.05025253,19.7781746 C6.65972824,20.1686989 6.02656326,20.1686989 5.63603897,19.7781746 L4.22182541,18.363961 C3.83130112,17.9734367 3.83130112,17.3402718 4.22182541,16.9497475 L5.10765191,16.0639579 C4.73152463,15.4274316 4.4410611,14.7342764 4.25212715,14.0003581 L3,14 C2.44771525,14 2,13.5522847 2,13 L2,11 C2,10.4477153 2.44771525,10 3,10 L4.25186923,10.000644 C4.44079671,9.26635459 4.73135344,8.5728581 5.10765191,7.93604206 L4.22182541,7.05025253 C3.83130112,6.65972824 3.83130112,6.02656326 4.22182541,5.63603897 L5.63603897,4.22182541 C6.02656326,3.83130112 6.65972824,3.83130112 7.05025253,4.22182541 L7.93604206,5.10765191 C8.5728581,4.73135344 9.26635459,4.44079671 10.000644,4.25186923 L10,3 C10,2.44771525 10.4477153,2 11,2 L13,2 Z M12,7 C9.23857625,7 7,9.23857625 7,12 C7,14.7614237 9.23857625,17 12,17 C14.7614237,17 17,14.7614237 17,12 C17,9.23857625 14.7614237,7 12,7 Z" id="Combined-Shape" fill="#000000"></path>
                    </g>
                </g>
            </g>
        </g>
    </g>
</svg>