<?xml version="1.0" encoding="UTF-8"?>
<svg width="32px" height="32px" viewBox="0 0 32 32" version="1.1" xmlns="http://www.w3.org/2000/svg" xmlns:xlink="http://www.w3.org/1999/xlink">
    <title>msg</title>
    <g id="Symbols" stroke="none" stroke-width="1" fill="none" fill-rule="evenodd">
        <g id="Group">
            <rect id="Rectangle" fill="#FFFFFF" opacity="0.6" x="0" y="0" width="32" height="32" rx="8"></rect>
            <g transform="translate(4.000000, 4.000000)">
                <polygon id="Path" points="0 0 24 0 24 24 0 24"></polygon>
                <path d="M22,20.7928932 C22,21.0690356 21.7761424,21.2928932 21.5,21.2928932 C21.3673918,21.2928932 21.2402148,21.2402148 21.1464466,21.1464466 L18,18 L4,18 C2.8954305,18 2,17.1045695 2,16 L2,4 C2,2.8954305 2.8954305,2 4,2 L20,2 C21.1045695,2 22,2.8954305 22,4 L22,20.7928932 Z M17,13 L7,13 C6.44771525,13 6,13.4477153 6,14 C6,14.5128358 6.38604019,14.9355072 6.88337887,14.9932723 L7,15 L17,15 C17.5522847,15 18,14.5522847 18,14 C18,13.4477153 17.5522847,13 17,13 Z M17,9 L7,9 C6.44771525,9 6,9.44771525 6,10 C6,10.5128358 6.38604019,10.9355072 6.88337887,10.9932723 L7,11 L17,11 C17.5522847,11 18,10.5522847 18,10 C18,9.44771525 17.5522847,9 17,9 Z M17,5 L7,5 C6.44771525,5 6,5.44771525 6,6 C6,6.51283584 6.38604019,6.93550716 6.88337887,6.99327227 L7,7 L17,7 C17.5522847,7 18,6.55228475 18,6 C18,5.44771525 17.5522847,5 17,5 Z" id="Combined-Shape" fill="#000000"></path>
            </g>
        </g>
    </g>
</svg>