<?xml version="1.0" encoding="UTF-8"?>
<svg width="25px" height="24px" viewBox="0 0 25 24" version="1.1" xmlns="http://www.w3.org/2000/svg" xmlns:xlink="http://www.w3.org/1999/xlink">
    <title>tos_desktop_ic_alarm_hit</title>
    <g id="Guide" stroke="none" stroke-width="1" fill="none" fill-rule="evenodd">
        <g id="04_02_03_TOS5_alarm" transform="translate(-140.000000, -603.000000)">
            <g id="Group" transform="translate(48.000000, 539.000000)">
                <g id="Group-8" transform="translate(80.000000, 52.000000)">
                    <g id="Group" transform="translate(12.000000, 12.000000)">
                        <polygon id="Path" points="0 0 24 0 24 24 0 24"></polygon>
                        <path d="M12,19 C13.1045695,19 14,19.8954305 14,21 C14,22.1045695 13.1045695,23 12,23 C10.8954305,23 10,22.1045695 10,21 C10,19.8954305 10.8954305,19 12,19 Z M4.22182541,16.9497475 C5.00287399,16.1686989 6.26920395,16.1686989 7.05025253,16.9497475 C7.83130112,17.7307961 7.83130112,18.997126 7.05025253,19.7781746 C6.26920395,20.5592232 5.00287399,20.5592232 4.22182541,19.7781746 C3.44077682,18.997126 3.44077682,17.7307961 4.22182541,16.9497475 Z M16.9497475,16.9497475 C17.7307961,16.1686989 18.997126,16.1686989 19.7781746,16.9497475 C20.5592232,17.7307961 20.5592232,18.997126 19.7781746,19.7781746 C18.997126,20.5592232 17.7307961,20.5592232 16.9497475,19.7781746 C16.1686989,18.997126 16.1686989,17.7307961 16.9497475,16.9497475 Z M10.9739396,14.8190779 C11.4929175,15.0079704 11.7605046,15.5818127 11.571612,16.1007906 C11.3827195,16.6197685 10.8088772,16.8873556 10.2898993,16.6984631 C9.77092138,16.5095706 9.5033343,15.9357282 9.69222681,15.4167503 C9.88111932,14.8977724 10.4549617,14.6301854 10.9739396,14.8190779 Z M14.5967808,15.2026129 C14.8301865,15.7031529 14.6136313,16.2981333 14.1130913,16.5315389 C13.6125513,16.7649446 13.0175709,16.5483894 12.7841653,16.0478494 C12.5507596,15.5473094 12.7673148,14.952329 13.2678548,14.7189234 C13.7683948,14.4855177 14.3633752,14.7020729 14.5967808,15.2026129 Z M9.28107664,13.2678548 C9.51448226,13.7683948 9.29792708,14.3633752 8.79738711,14.5967808 C8.29684714,14.8301865 7.70186669,14.6136313 7.46846106,14.1130913 C7.23505544,13.6125513 7.45161062,13.0175709 7.95215059,12.7841653 C8.45269056,12.5507596 9.04767102,12.7673148 9.28107664,13.2678548 Z M16.1007906,12.428388 C16.6197685,12.6172805 16.8873556,13.1911228 16.6984631,13.7101007 C16.5095706,14.2290786 15.9357282,14.4966657 15.4167503,14.3077732 C14.8977724,14.1188807 14.6301854,13.5450383 14.8190779,13.0260604 C15.0079704,12.5070825 15.5818127,12.2394954 16.1007906,12.428388 Z M3,10 C4.1045695,10 5,10.8954305 5,12 C5,13.1045695 4.1045695,14 3,14 C1.8954305,14 1,13.1045695 1,12 C1,10.8954305 1.8954305,10 3,10 Z M21,10 C22.1045695,10 23,10.8954305 23,12 C23,13.1045695 22.1045695,14 21,14 C19.8954305,14 19,13.1045695 19,12 C19,10.8954305 19.8954305,10 21,10 Z M12,11 C12.5522847,11 13,11.4477153 13,12 C13,12.5522847 12.5522847,13 12,13 C11.4477153,13 11,12.5522847 11,12 C11,11.4477153 11.4477153,11 12,11 Z M8.58324966,9.69222681 C9.10222756,9.88111932 9.36981465,10.4549617 9.18092214,10.9739396 C8.99202963,11.4929175 8.41818728,11.7605046 7.89920937,11.571612 C7.38023147,11.3827195 7.11264439,10.8088772 7.3015369,10.2898993 C7.49042941,9.77092138 8.06427176,9.5033343 8.58324966,9.69222681 Z M16.5315389,9.88690869 C16.7649446,10.3874487 16.5483894,10.9824291 16.0478494,11.2158347 C15.5473094,11.4492404 14.952329,11.2326852 14.7189234,10.7321452 C14.4855177,10.2316052 14.7020729,9.63662479 15.2026129,9.40321917 C15.7031529,9.16981355 16.2981333,9.38636872 16.5315389,9.88690869 Z M11.2158347,7.95215059 C11.4492404,8.45269056 11.2326852,9.04767102 10.7321452,9.28107664 C10.2316052,9.51448226 9.63662479,9.29792708 9.40321917,8.79738711 C9.16981355,8.29684714 9.38636872,7.70186669 9.88690869,7.46846106 C10.3874487,7.23505544 10.9824291,7.45161062 11.2158347,7.95215059 Z M13.7101007,7.3015369 C14.2290786,7.49042941 14.4966657,8.06427176 14.3077732,8.58324966 C14.1188807,9.10222756 13.5450383,9.36981465 13.0260604,9.18092214 C12.5070825,8.99202963 12.2394954,8.41818728 12.428388,7.89920937 C12.6172805,7.38023147 13.1911228,7.11264439 13.7101007,7.3015369 Z M16.9497475,4.22182541 C17.7307961,3.44077682 18.997126,3.44077682 19.7781746,4.22182541 C20.5592232,5.00287399 20.5592232,6.26920395 19.7781746,7.05025253 C18.997126,7.83130112 17.7307961,7.83130112 16.9497475,7.05025253 C16.1686989,6.26920395 16.1686989,5.00287399 16.9497475,4.22182541 Z M4.22182541,4.22182541 C5.00287399,3.44077682 6.26920395,3.44077682 7.05025253,4.22182541 C7.83130112,5.00287399 7.83130112,6.26920395 7.05025253,7.05025253 C6.26920395,7.83130112 5.00287399,7.83130112 4.22182541,7.05025253 C3.44077682,6.26920395 3.44077682,5.00287399 4.22182541,4.22182541 Z M12,1 C13.1045695,1 14,1.8954305 14,3 C14,4.1045695 13.1045695,5 12,5 C10.8954305,5 10,4.1045695 10,3 C10,1.8954305 10.8954305,1 12,1 Z" id="Combined-Shape" fill="#FFFFFF"></path>
                    </g>
                </g>
            </g>
        </g>
    </g>
</svg>