<?xml version="1.0" encoding="UTF-8"?>
<svg width="25px" height="24px" viewBox="0 0 25 24" version="1.1" xmlns="http://www.w3.org/2000/svg" xmlns:xlink="http://www.w3.org/1999/xlink">
    <title>tos_desktop_ic_alarm_wifi</title>
    <g id="Guide" stroke="none" stroke-width="1" fill="none" fill-rule="evenodd">
        <g id="04_02_03_TOS5_alarm" transform="translate(-260.000000, -603.000000)">
            <g id="Group" transform="translate(48.000000, 539.000000)">
                <g id="Group-13" transform="translate(197.000000, 52.000000)">
                    <g id="Group" transform="translate(15.000000, 12.000000)">
                        <polygon id="Path" points="0 0 24 0 24 24 0 24"></polygon>
                        <path d="M18.5,2 L18.5,4 L20.5,4 L20.5,2 L21.75,2 C22.1625,2 22.5,2.3375 22.5,2.75 L22.5,7.25 C22.5,7.6625 22.1625,8 21.75,8 L20.499,8 L20.5,20 C20.5,20.5522847 20.0522847,21 19.5,21 C18.9477153,21 18.5,20.5522847 18.5,20 L18.499,8 L17.25,8 C16.8375,8 16.5,7.6625 16.5,7.25 L16.5,2.75 C16.5,2.3375 16.8375,2 17.25,2 L18.5,2 Z M12.19,16.3 C13.4050264,16.3 14.39,17.2849736 14.39,18.5 C14.39,19.7150264 13.4050264,20.7 12.19,20.7 C10.9749736,20.7 9.99,19.7150264 9.99,18.5 C9.99,17.2849736 10.9749736,16.3 12.19,16.3 Z M12.0908281,11.9 C13.9258692,11.9 15.6431304,12.6541537 16.880838,13.959519 C17.298838,14.4003685 17.2803149,15.0966036 16.8394654,15.5146037 C16.3986158,15.9326037 15.7023807,15.9140806 15.2843807,15.4732311 C14.4579125,14.601585 13.315768,14.1 12.0908281,14.1 C10.8434839,14.1 9.19058519,14.9671868 8.4219833,16.0741306 L8.31348647,16.2418919 C8.00114843,16.7629651 7.32553514,16.9321784 6.80446196,16.6198403 C6.28338877,16.3075023 6.11417549,15.631889 6.42651353,15.1108158 C7.54231535,13.2493249 10.0217707,11.9 12.0908281,11.9 Z M12.0918177,7.6 C13.7548368,7.6 15.3652681,7.98409222 16.8221893,8.71170013 C17.3656928,8.98313381 17.586249,9.64377094 17.3148153,10.1872745 C17.0433816,10.730778 16.3827445,10.9513342 15.839241,10.6799005 C14.6858696,10.1038898 13.4117129,9.8 12.0918177,9.8 C9.45510576,9.8 7.02255395,11.0214996 5.44042668,13.0690413 C5.06897365,13.5497647 4.37814818,13.6383458 3.8974248,13.2668928 C3.41670142,12.8954398 3.3281203,12.2046143 3.69957332,11.7238909 C5.69396187,9.14281299 8.76639234,7.6 12.0918177,7.6 Z M12.092179,3.3 C12.8220526,3.3 13.5455804,3.35364296 14.2586635,3.45978767 C14.8595561,3.54923247 15.2741665,4.10886153 15.1847217,4.70975416 C15.0952769,5.31064678 14.5356478,5.72525716 13.9347552,5.63581235 C13.3288153,5.54561624 12.7135505,5.5 12.092179,5.5 C8.30272234,5.5 4.79584604,7.20904117 2.45447106,10.0970756 C2.07188511,10.5689869 1.37917819,10.6413995 0.907266858,10.2588135 C0.435355522,9.87622756 0.362942989,9.18352064 0.745528939,8.7116093 C3.50028841,5.31367422 7.63225816,3.3 12.092179,3.3 Z" id="Combined-Shape" fill="#000000"></path>
                    </g>
                </g>
            </g>
        </g>
    </g>
</svg>