<?xml version="1.0" encoding="UTF-8"?>
<svg width="25px" height="24px" viewBox="0 0 25 24" version="1.1" xmlns="http://www.w3.org/2000/svg" xmlns:xlink="http://www.w3.org/1999/xlink">
    <title>tos_desktop_ic_alarm_lock</title>
    <g id="Guide" stroke="none" stroke-width="1" fill="none" fill-rule="evenodd">
        <g id="04_02_03_TOS5_alarm" transform="translate(-80.000000, -701.000000)">
            <g id="Group" transform="translate(48.000000, 539.000000)">
                <g id="Group-13-Copy" transform="translate(18.000000, 150.000000)">
                    <g id="Group" transform="translate(14.000000, 12.000000)">
                        <polygon id="Path" points="0 0 24 0 24 24 0 24"></polygon>
                        <path d="M21,3 C22.05,3 22.9177686,3.81092975 22.9944872,4.85006292 L23,5 L23,17 C23,18.05 22.1799587,18.9177686 21.1486946,18.9944872 L21,19 L15,19 L15,20 L16,20 C16.5522847,20 17,20.4477153 17,21 C17,21.5522847 16.5522847,22 16,22 L8,22 C7.44771525,22 7,21.5522847 7,21 C7,20.4477153 7.44771525,20 8,20 L9,20 L9,19 L3,19 C1.95,19 1.0822314,18.1799587 1.00551277,17.1486946 L1,17 L1,5 C1,3.95 1.82004132,3.0822314 2.85130541,3.00551277 L3,3 L21,3 Z M20,5 L4,5 C3.45,5 3,5.45 3,6 L3,6 L3,16 C3,16.55 3.45,17 4,17 L4,17 L20,17 C20.55,17 21,16.55 21,16 L21,16 L21,6 C21,5.45 20.55,5 20,5 L20,5 Z M12,7 C13.3807119,7 14.5,8.11928813 14.5,9.5 C14.5,10.5248383 13.8833391,11.4056476 13.00083,11.7916153 L13,14 C13,14.5522847 12.5522847,15 12,15 C11.4477153,15 11,14.5522847 11,14 L11.0001748,11.7920545 C10.1171291,11.4063162 9.5,10.5252272 9.5,9.5 C9.5,8.11928813 10.6192881,7 12,7 Z" id="Combined-Shape" fill="#000000"></path>
                    </g>
                </g>
            </g>
        </g>
    </g>
</svg>