<?xml version="1.0" encoding="UTF-8"?>
<svg width="32px" height="32px" viewBox="0 0 32 32" version="1.1" xmlns="http://www.w3.org/2000/svg" xmlns:xlink="http://www.w3.org/1999/xlink">
    <!-- Generator: Sketch 61.2 (89653) - https://sketch.com -->
    <title>tos_desktop_ic_dock_tmax</title>
    <desc>Created with Sketch.</desc>
    <g id="Guide" stroke="none" stroke-width="1" fill="none" fill-rule="evenodd">
        <g id="02_02_02_TOS5_Dock" transform="translate(-12.000000, -310.000000)">
            <g id="dock-copy-5" transform="translate(0.000000, 304.000000)">
                <g id="Group-9" transform="translate(12.000000, 6.000000)">
                    <g id="tos_ic/tmax">
                        <polygon id="Path" points="0 0 32 0 32 32 0 32"></polygon>
                        <path d="M24.9136815,9.33333333 C25.0400418,9.33333333 25.1599806,9.39183623 25.2395255,9.49209501 C25.3196918,9.59280038 25.3505568,9.72476684 25.3240419,9.85115096 L25.3240419,9.85115096 L24.3278667,14.6617861 C24.2864371,14.860294 24.115747,15.0018621 23.9179206,15.0018621 L23.9179206,15.0018621 L19.5398456,15.0018621 L16.9034717,27.6603706 C16.8622493,27.8579853 16.6913521,28 16.4926971,28 L16.4926971,28 L10.4280222,28 C10.3016619,28 10.1817232,27.9412738 10.101764,27.8414616 C10.0222191,27.7407562 9.99156121,27.6081199 10.0176619,27.4819591 L10.0176619,27.4819591 L12.616749,15.0018621 L8.42013574,15.0018621 C8.29315396,15.0018621 8.17362951,14.9431359 8.09367034,14.8428771 C8.01391833,14.7421718 7.98284611,14.6104286 8.00915392,14.4835979 L8.00915392,14.4835979 L8.35861276,12.5764481 L14.4750746,12.5764481 C14.6708296,12.5764481 14.8408981,12.4377829 14.8843992,12.2421777 L14.8843992,12.2421777 L15.5773096,9.33333333 Z M15.0484733,4 C15.1760998,4 15.2958079,4.0612227 15.3752251,4.16628708 C15.4546423,4.27135145 15.4844529,4.40858369 15.4562726,4.53933047 L15.4562726,4.53933047 L14.0176796,11.2123453 C13.974594,11.4133944 13.8059779,11.5555556 13.6108118,11.5555556 L13.6108118,11.5555556 L6.8179605,11.5555556 C6.69079978,11.5555556 6.5708588,11.4948517 6.49144157,11.3900467 C6.41202435,11.2852418 6.38221377,11.1480095 6.41039408,11.0167439 L6.41039408,11.0167439 L7.84363051,4.34424797 C7.8871819,4.14293944 8.05626374,4 8.25166273,4 L8.25166273,4 Z" id="Combined-Shape" fill="#FFFFFF" fill-rule="evenodd"></path>
                    </g>
                </g>
            </g>
        </g>
    </g>
</svg>